<svg width="170" height="94" viewBox="0 0 170 94" fill="none" xmlns="http://www.w3.org/2000/svg">
<circle cx="86" cy="47" r="40" fill="url(#paint0_linear_388_70)" fill-opacity="0.1"/>
<circle cx="86" cy="47" r="39.5" stroke="white" stroke-opacity="0.2"/>
<path d="M163.106 76.6673C162.738 77.6328 161.891 78.4449 160.51 79.076C159.127 79.708 157.251 80.1369 154.917 80.3526C150.25 80.784 143.865 80.3543 136.2 79.1201C120.878 76.6531 100.548 70.9891 78.8473 62.7074C57.1467 54.4258 38.2117 45.1048 25.1419 36.7367C18.6034 32.5504 13.5558 28.617 10.3632 25.1865C8.76611 23.4704 7.65309 21.901 7.04266 20.5081C6.43314 19.1173 6.34272 17.9475 6.71116 16.9821C7.07961 16.0166 7.92637 15.2046 9.30752 14.5734C10.6907 13.9414 12.5663 13.5125 14.9006 13.2968C19.567 12.8655 25.9519 13.2951 33.6169 14.5293C48.9388 16.9964 69.2693 22.6604 90.97 30.942C112.671 39.2237 131.606 48.5446 144.675 56.9127C151.214 61.099 156.261 65.0324 159.454 68.463C161.051 70.1791 162.164 71.7484 162.775 73.1413C163.384 74.5321 163.475 75.7019 163.106 76.6673Z" stroke="white" stroke-opacity="0.2"/>
<defs>
<linearGradient id="paint0_linear_388_70" x1="59.5" y1="18" x2="113" y2="73.5" gradientUnits="userSpaceOnUse">
<stop stop-color="white"/>
<stop offset="1"/>
</linearGradient>
</defs>
</svg>
